HIERARCHY
ROOT Hips
{
     OFFSET 9.89126 99.05240 -33.79170
     CHANNELS 6 Xposition Yposition Zposition Zrotation Xrotation Yrotation
     JOINT Spine
     {
          OFFSET 0.00000 11.89050 0.00000
          CHANNELS 3 Zrotation Xrotation Yrotation
          JOINT Spine1
          {
               OFFSET 0.00000 25.65740 0.12766
               CHANNELS 3 Zrotation Xrotation Yrotation
               JOINT HEad
               {
                    OFFSET 0.00000 8.73416 0.01134
                    CHANNELS 3 Zrotation Xrotation Yrotation
                    End Site
                    {
                         OFFSET -0.29000 12.77420 2.51395
                    }
               }
               JOINT LeftShoulder1
               {
                    OFFSET 8.99000 -0.36225 -0.22000
                    CHANNELS 3 Zrotation Xrotation Yrotation
                    JOINT LeftArm
                    {
                         OFFSET 10.28270 -0.00338 0.32212
                         CHANNELS 3 Zrotation Xrotation Yrotation
                         JOINT LeftForeArm
                         {
                              OFFSET 32.76690 0.09914 -1.42434
                              CHANNELS 3 Zrotation Xrotation Yrotation
                              JOINT LeftHand
                              {
                                   OFFSET 27.56430 0.08536 1.02216
                                   CHANNELS 3 Zrotation Xrotation Yrotation
                                   End Site
                                   {
                                        OFFSET 16.74430 -0.60000 1.50291
                                   }
                              }
                         }
                    }
               }
               JOINT RightShoulder
               {
                    OFFSET -8.99000 -0.36225 -0.22000
                    CHANNELS 3 Zrotation Xrotation Yrotation
                    JOINT RightArm
                    {
                         OFFSET -10.28270 -0.00338 0.32212
                         CHANNELS 3 Zrotation Xrotation Yrotation
                         JOINT RightForeArm
                         {
                              OFFSET -32.89710 0.09914 -1.42434
                              CHANNELS 3 Zrotation Xrotation Yrotation
                              JOINT RightHand
                              {
                                   OFFSET -27.49210 0.08536 1.02216
                                   CHANNELS 3 Zrotation Xrotation Yrotation
                                   End Site
                                   {
                                        OFFSET -16.63120 -0.60000 1.50291
                                   }
                              }
                         }
                    }
               }
          }
     }
     JOINT LeftUpLeg
     {
          OFFSET 8.94580 -8.66707 0.10165
          CHANNELS 3 Zrotation Xrotation Yrotation
          JOINT LeftLeg
          {
               OFFSET 0.00000 -44.42270 1.37270
               CHANNELS 3 Zrotation Xrotation Yrotation
               JOINT LeftFoot
               {
                    OFFSET -0.25355 -42.09240 -1.46059
                    CHANNELS 3 Zrotation Xrotation Yrotation
                    JOINT LeftToes
                    {
                         OFFSET -0.04000 -4.41509 8.49910
                         CHANNELS 3 Zrotation Xrotation Yrotation
                         End Site
                         {
                              OFFSET 0.08000 -0.04745 9.77979
                         }
                    }
               }
          }
     }
     JOINT RightUpLeg
     {
          OFFSET -8.94580 -8.66707 0.10165
          CHANNELS 3 Zrotation Xrotation Yrotation
          JOINT RightLeg
          {
               OFFSET 0.00000 -44.42270 1.37270
               CHANNELS 3 Zrotation Xrotation Yrotation
               JOINT RightFoot
               {
                    OFFSET 0.25355 -42.09240 -1.46059
                    CHANNELS 3 Zrotation Xrotation Yrotation
                    JOINT RightToes
                    {
                         OFFSET 0.04000 -4.41509 8.49910
                         CHANNELS 3 Zrotation Xrotation Yrotation
                         End Site
                         {
                              OFFSET -0.08000 -0.13745 9.77979
                         }
                    }
               }
          }
     }
}
MOTION
Frames: 7
Frame Time: 0.01667
9.89126 99.05240 -33.79170 -3.75971 -7.39303 -11.20400 1.26994 9.92310 -0.95959 2.04079 19.87040 -2.07679 -9.58976 20.76780 3.57733 0.00000 0.00000 0.00000 -106.94100 -13.67090 -65.14630 14.61580 37.36830 -113.21900 34.66920 12.30190 12.33210 14.57480 1.28893 4.86981 80.20260 -3.98563 77.61460 -0.68790 29.83510 89.33030 -5.12328 9.26756 12.29420 17.89740 -14.64680 7.40780 -19.39960 26.18990 47.98840 6.36859 -7.93636 0.04820 0.91098 -0.06445 3.92325 -2.92867 -7.11113 -7.68601 1.23997 27.16910 2.17123 7.66714 -23.63580 0.82755 8.71421 30.21540 -12.56950 
9.90860 98.95210 -33.65320 -3.83309 -7.17133 -10.59510 1.20764 10.08500 -0.97968 1.89590 20.19780 -2.10901 -9.63237 20.92210 3.48431 0.00000 0.00000 0.00000 -106.96800 -13.16800 -66.23300 15.11180 36.98290 -113.91900 34.97740 12.36440 12.46240 14.36570 1.28275 4.90694 80.94420 -3.89446 78.66330 -1.00142 30.29060 90.19010 -5.26549 9.24860 12.25490 18.33520 -14.71760 8.56871 -19.85480 25.42660 49.60300 7.22658 -7.80852 0.04139 0.79710 -0.32007 4.14596 -2.97976 -7.35796 -8.17426 1.44107 27.53680 1.54489 7.58782 -23.61330 0.81463 8.43991 29.95110 -11.57640 
9.91215 98.85170 -33.48760 -3.90220 -7.02827 -9.81739 1.14342 10.26450 -1.00087 1.73681 20.55300 -2.13351 -9.58828 21.20080 3.27355 0.00000 0.00000 0.00000 -106.87700 -12.90260 -66.95760 15.48500 36.71180 -114.54100 35.26410 12.39910 12.50420 14.19990 1.27481 4.91905 81.49650 -4.02792 79.43530 -1.20140 30.76170 90.93350 -5.37478 9.23208 12.27410 18.70930 -14.74710 9.63369 -20.23780 24.77930 51.18950 7.95398 -7.72068 0.03567 0.85809 -0.26476 4.24980 -3.05398 -7.53361 -8.57489 1.72636 28.04610 0.92048 7.58862 -23.81530 0.82765 8.42844 29.95390 -11.50690 
9.90222 98.75230 -33.28740 -4.01102 -6.92116 -8.83860 1.09378 10.44830 -1.03315 1.59492 20.90920 -2.17242 -9.48140 21.50440 2.97986 0.00000 0.00000 0.00000 -106.75000 -12.78430 -67.37540 15.77040 36.48330 -115.13600 35.35790 12.40820 12.51060 14.10330 1.26774 4.91163 81.83300 -4.27498 79.97340 -1.24277 31.20400 91.52200 -5.47306 9.21514 12.34020 19.09180 -14.76980 10.61110 -20.57040 24.16430 52.69200 8.32443 -7.69019 0.03346 1.28034 0.35258 4.33434 -3.11154 -7.64566 -8.87609 2.14154 28.65170 0.15197 7.82510 -24.31590 0.89544 8.74313 30.42290 -12.31700 
9.87856 98.64530 -33.04450 -4.19716 -6.81776 -7.64429 1.09641 10.62090 -1.08165 1.50281 21.24150 -2.23860 -9.32984 21.66150 2.64707 0.00000 0.00000 0.00000 -106.64800 -12.74110 -67.57100 16.01030 36.27700 -115.73100 35.24050 12.41320 12.55650 14.07420 1.26351 4.89692 81.97860 -4.53717 80.32140 -1.11410 31.58940 91.96080 -5.56206 9.19992 12.39520 19.55130 -14.77840 11.49770 -20.89940 23.42960 54.19270 8.23071 -7.61886 0.02781 1.89399 1.31409 4.26847 -3.10337 -7.70832 -9.08558 2.67029 29.31500 -0.92123 8.49250 -25.13580 1.05602 9.37476 31.40740 -13.71570 
9.84161 98.51530 -32.75690 -4.48835 -6.71576 -6.23561 1.19084 10.76990 -1.14346 1.49729 21.53430 -2.33240 -9.18471 21.65950 2.32597 0.00000 0.00000 0.00000 -106.59500 -12.73130 -67.61750 16.23550 36.13280 -116.32200 35.07470 12.44430 12.70110 14.06200 1.26043 4.88297 82.02100 -4.75236 80.50830 -0.78930 31.92170 92.26110 -5.64845 9.18700 12.40360 20.12530 -14.74230 12.29090 -21.28310 22.42870 55.87730 7.85961 -7.42665 0.01344 2.45595 2.31452 3.81344 -2.98955 -7.72555 -9.22976 3.28676 30.00230 -2.40907 9.62555 -26.15020 1.32136 10.17760 32.63250 -15.30720 
9.79392 98.34780 -32.42680 -4.89486 -6.64665 -4.61909 1.38896 10.88670 -1.21160 1.59805 21.77670 -2.44620 -9.08190 21.65250 2.04966 0.00000 0.00000 0.00000 -106.56800 -12.73090 -67.54540 16.48830 36.05280 -116.92100 35.03620 12.53060 12.99560 14.02120 1.25804 4.88333 82.03870 -4.91806 80.53560 -0.10950 32.22260 92.34770 -5.77690 9.16761 12.41960 20.79760 -14.64890 13.04700 -21.76700 21.12860 57.83070 7.73866 -7.24937 0.00051 3.03111 3.44356 2.91889 -2.76003 -7.68333 -9.36134 3.99552 30.69650 -4.32252 10.96450 -27.12300 1.64206 10.88290 33.62950 -16.66820 
